<svg width="145" height="145" viewBox="0 0 145 145" fill="none" xmlns="http://www.w3.org/2000/svg">
<path d="M57.4916 65.5594C58.8954 64.5429 59.5731 62.8647 59.5731 60.5573C59.6215 59.4601 59.3956 58.379 58.9115 57.3947C58.4758 56.6041 57.8304 55.9425 57.0398 55.4746C56.22 54.9774 55.3094 54.6483 54.3612 54.5064C53.3285 54.3128 52.2797 54.216 51.247 54.2321H39.9036V67.0923H52.1829C54.2967 67.1084 56.0877 66.5921 57.4916 65.5594ZM59.3956 77.1771C57.8143 75.9669 55.7005 75.3699 53.0704 75.3699H39.8714V90.5375H52.8122C54.0224 90.5375 55.1357 90.4245 56.2168 90.1986C57.2397 89.9986 58.2147 89.6043 59.089 89.0369C59.9119 88.5044 60.5735 87.7783 61.0737 86.8424C61.5578 85.9066 61.7998 84.7125 61.7998 83.2764C61.7998 80.4204 60.993 78.4034 59.3956 77.1771ZM72.288 0C32.3682 0 0 32.3682 0 72.288C0 112.208 32.3682 144.576 72.288 144.576C112.208 144.576 144.576 112.208 144.576 72.288C144.576 32.3682 112.208 0 72.288 0ZM86.2454 46.2934H108.577V51.7311H86.2454V46.2934ZM72.288 91.1345C71.2435 93.1173 69.7519 94.8298 67.9314 96.1366C66.0274 97.4597 63.9136 98.4279 61.6707 98.9926C59.3241 99.6214 56.9035 99.9308 54.4742 99.9123H27.7534V44.8734H53.7319C56.3621 44.8734 58.7501 45.1155 60.9285 45.5673C63.0906 46.0191 64.9301 46.7936 66.4791 47.8424C68.012 48.8912 69.2222 50.295 70.0774 52.0377C70.9165 53.7642 71.3521 55.9264 71.3521 58.492C71.3521 61.2673 70.7228 63.5586 69.4643 65.4142C68.1895 67.2698 66.3501 68.7704 63.849 69.9483C67.2537 70.9165 69.7547 72.643 71.4005 75.0633C73.0786 77.516 73.9016 80.4527 73.9016 83.9057C73.9016 86.7133 73.3691 89.1175 72.288 91.1345ZM117.274 82.6149H88.4883C88.4883 85.7452 89.5694 88.7464 91.1991 90.36C92.8449 91.9574 95.2007 92.7642 98.2826 92.7642C100.509 92.7642 102.397 92.1995 104.011 91.0861C105.608 89.9727 106.576 88.7948 106.931 87.5685H116.581C115.032 92.3608 112.676 95.7816 109.481 97.847C106.318 99.9124 102.446 100.945 97.9438 100.945C94.7973 100.945 91.9736 100.429 89.4403 99.4444C87.0038 98.4924 84.8093 97.0402 83.0021 95.1684C81.2203 93.2463 79.8429 90.9855 78.9521 88.5205C77.9678 85.7936 77.4837 82.9214 77.516 80.0331C77.516 77.048 78.0162 74.2727 78.9843 71.691C80.8399 66.6728 84.6964 62.655 89.6178 60.5735C92.2479 59.4762 95.0716 58.9276 97.9277 58.9599C101.316 58.9599 104.253 59.6053 106.802 60.9285C109.257 62.1919 111.388 64.0027 113.031 66.221C114.66 68.4316 115.806 70.9487 116.532 73.7886C117.226 76.5801 117.468 79.5168 117.274 82.6149ZM97.5888 67.1891C95.8461 67.1891 94.3778 67.4957 93.2483 68.0927C92.1188 68.6897 91.1829 69.432 90.473 70.2872C89.7968 71.1129 89.2971 72.0684 89.0046 73.0948C88.7464 73.95 88.5689 74.8213 88.5044 75.7088H106.334C106.076 72.9173 105.108 70.8519 103.817 69.3997C102.462 67.9636 100.283 67.1891 97.5888 67.1891Z" fill="#241AFF"/>
</svg>
