<svg width="1440" height="1024" viewBox="0 0 1440 1024" fill="none" xmlns="http://www.w3.org/2000/svg">
<g clip-path="url(#clip0_333_129)">
<rect width="1440" height="1024" fill="#FDFFDC"/>
<path d="M-5.18417e-05 1024L-0.841605 1023.46L-1.83001 1025L-5.18854e-05 1025L-5.18417e-05 1024ZM1192.03 -140.678L1192.36 -141.624L1192.03 -140.678ZM1850.76 718.404L1851.72 718.701L1850.76 718.404ZM1374.32 6.46145L1375.27 6.13155L1374.32 6.46145ZM632.522 60.557L631.83 59.8358L632.522 60.557ZM846.803 141.989L847.349 142.826L846.803 141.989ZM1462.11 1025C1651.93 1025 1801.41 880.471 1851.72 718.701L1849.81 718.107C1799.7 879.244 1650.86 1023 1462.11 1023L1462.11 1025ZM1073.29 335.646C1191.02 297.775 1276.54 244.268 1327.63 185.806C1378.73 127.334 1395.43 63.8261 1375.27 6.13155L1373.38 6.79134C1393.24 63.6211 1376.89 126.394 1326.12 184.49C1275.35 242.596 1190.19 295.943 1072.68 333.742L1073.29 335.646ZM1375.27 6.13155C1354.39 -53.6165 1294.08 -106.805 1192.36 -141.624L1191.71 -139.731C1293.14 -105.015 1352.78 -52.1453 1373.38 6.79134L1375.27 6.13155ZM1851.72 718.701C1892.33 588.104 1868.37 446.021 1748.61 359.524C1628.92 273.08 1413.84 242.39 1072.73 333.728L1073.24 335.66C1414.15 244.376 1628.48 275.233 1747.44 361.146C1866.32 447.005 1890.24 588.089 1849.81 718.107L1851.72 718.701ZM1297.69 665.237C1429.62 651.288 1549.44 646.823 1645.45 654.838C1693.45 658.846 1735.48 665.971 1770.08 676.579C1804.69 687.189 1831.81 701.262 1850.06 719.119L1851.46 717.689C1832.89 699.523 1805.44 685.326 1770.67 674.666C1735.88 664.004 1693.71 656.86 1645.61 652.845C1549.43 644.815 1429.48 649.292 1297.48 663.248L1297.69 665.237ZM1072.98 334.694C1072.88 335.689 1072.88 335.689 1072.88 335.689C1072.89 335.689 1072.89 335.69 1072.9 335.691C1072.91 335.692 1072.93 335.694 1072.95 335.696C1073 335.702 1073.07 335.71 1073.17 335.72C1073.37 335.742 1073.66 335.775 1074.04 335.82C1074.81 335.91 1075.96 336.048 1077.44 336.241C1080.4 336.626 1084.73 337.228 1090.17 338.097C1101.05 339.834 1116.39 342.635 1134.21 346.891C1169.87 355.403 1215.42 369.723 1255.09 392.949C1294.77 416.18 1328.46 448.247 1340.63 492.213C1352.79 536.157 1343.53 592.248 1296.75 663.694L1298.42 664.79C1345.39 593.06 1354.93 536.37 1342.55 491.679C1330.19 447.009 1296.01 414.586 1256.1 391.223C1216.19 367.857 1170.43 353.48 1134.68 344.945C1116.8 340.676 1101.41 337.866 1090.48 336.122C1085.02 335.25 1080.68 334.645 1077.7 334.258C1076.2 334.064 1075.06 333.924 1074.28 333.834C1073.89 333.788 1073.59 333.755 1073.39 333.733C1073.29 333.722 1073.22 333.713 1073.17 333.708C1073.14 333.705 1073.12 333.703 1073.11 333.702C1073.1 333.701 1073.1 333.7 1073.09 333.7C1073.09 333.7 1073.09 333.7 1072.98 334.694ZM1192.36 -141.624C1003.35 -206.316 819.015 -119.916 631.83 59.8358L633.215 61.2783C820.242 -118.321 1003.8 -204.048 1191.71 -139.731L1192.36 -141.624ZM631.83 59.8358C528.248 159.304 426.326 312.593 322.201 484.771C218.043 657 111.689 848.115 -0.841605 1023.46L0.841623 1024.54C113.383 849.178 219.814 657.937 323.912 485.805C428.042 313.621 529.845 160.543 633.215 61.2783L631.83 59.8358ZM847.349 142.826C951.758 74.6236 1052.35 22.656 1142.39 -3.20204C1232.44 -29.0631 1311.77 -28.7685 1373.82 7.32583L1374.83 5.59707C1312.11 -30.8872 1232.14 -31.0574 1141.84 -5.12435C1051.53 20.8117 950.744 72.8973 846.256 141.152L847.349 142.826ZM633.035 61.4154C654.815 48.397 681.441 35.0953 708.526 25.4357C735.626 15.7707 763.106 9.78021 786.62 11.309C810.101 12.8356 829.525 21.8423 840.795 42.0957C852.106 62.423 855.328 94.2852 845.822 141.793L847.783 142.185C857.324 94.5016 854.197 62.0663 842.543 41.1232C830.847 20.106 810.689 10.8696 786.75 9.3132C762.845 7.75905 735.069 13.846 707.854 23.5519C680.625 33.2632 653.88 46.626 632.009 59.6987L633.035 61.4154ZM0.754099 1024.66C73.2281 941.435 162.691 816.966 262.839 689.463C363.024 561.911 473.95 431.255 589.469 335.464L588.193 333.924C472.5 429.86 361.466 560.658 261.266 688.227C161.028 815.845 71.6812 940.166 -0.754202 1023.34L0.754099 1024.66ZM589.469 335.464C675.508 264.118 762.669 198.142 847.349 142.826L846.256 141.152C761.496 196.519 674.273 262.544 588.193 333.924L589.469 335.464ZM0.566843 1024.82C98.4852 957.45 229.894 844.835 367.976 733.409C506.107 621.944 650.936 511.651 775.826 448.772L774.926 446.985C649.822 509.973 504.84 620.397 366.72 731.853C228.551 843.348 97.2678 955.86 -0.566824 1023.18L0.566843 1024.82ZM775.721 448.817C841.209 424.733 898.029 402.092 947.263 382.646C996.506 363.197 1038.14 346.953 1073.29 335.646L1072.68 333.742C1037.45 345.073 995.759 361.342 946.528 380.786C897.288 400.234 840.492 422.866 775.031 446.94L775.721 448.817ZM589.281 335.587C610.719 324.78 636.624 314.724 662.52 308.649C688.432 302.569 714.246 300.495 735.546 305.562C756.795 310.616 773.526 322.759 781.485 345.186C789.472 367.693 788.679 400.71 774.419 447.587L776.332 448.17C790.643 401.126 791.566 367.615 783.37 344.517C775.144 321.338 757.791 308.797 736.009 303.616C714.28 298.448 688.118 300.589 662.063 306.702C635.992 312.818 609.939 322.933 588.381 333.801L589.281 335.587ZM0.285959 1024.96C221.95 958.807 545.383 850.154 869.284 763.331L868.767 761.4C544.84 848.229 221.275 956.921 -0.28594 1023.04L0.285959 1024.96ZM869.284 763.331C1015.13 724.238 1161.04 689.579 1297.76 665.227L1297.41 663.258C1160.61 687.623 1014.64 722.298 868.767 761.4L869.284 763.331ZM1462.11 1023L1035.69 1023L1035.69 1025L1462.11 1025L1462.11 1023ZM1035.69 1023L-5.1798e-05 1023L-5.18854e-05 1025L1035.69 1025L1035.69 1023ZM868.923 763.36C904.453 767.035 945.612 774.342 984.106 785.946C1022.62 797.555 1058.38 813.44 1083.18 834.225C1107.96 854.987 1121.71 880.547 1116.53 911.626C1111.33 942.804 1087.05 979.788 1035.05 1023.23L1036.33 1024.77C1088.45 981.22 1113.19 943.844 1118.5 911.954C1123.84 879.965 1109.59 853.751 1084.46 832.692C1059.36 811.655 1023.3 795.673 984.684 784.031C946.046 772.384 904.76 765.056 869.128 761.371L868.923 763.36Z" fill="#241AFF"/>
<g filter="url(#filter0_f_333_129)">
<ellipse cx="448" cy="481" rx="398" ry="390" fill="#FDFFDC" fill-opacity="0.86"/>
</g>
</g>
<defs>
<filter id="filter0_f_333_129" x="20" y="61" width="856" height="840" filterUnits="userSpaceOnUse" color-interpolation-filters="sRGB">
<feFlood flood-opacity="0" result="BackgroundImageFix"/>
<feBlend mode="normal" in="SourceGraphic" in2="BackgroundImageFix" result="shape"/>
<feGaussianBlur stdDeviation="15" result="effect1_foregroundBlur_333_129"/>
</filter>
<clipPath id="clip0_333_129">
<rect width="1440" height="1024" fill="white"/>
</clipPath>
</defs>
</svg>
