<svg width="145" height="145" viewBox="0 0 145 145" fill="none" xmlns="http://www.w3.org/2000/svg">
<g clip-path="url(#clip0_467_538)">
<path d="M94.1721 72.288L133.14 33.3203C140.764 45.2741 144.576 58.2634 144.576 72.288C144.576 86.3126 140.764 99.3019 133.14 111.256L94.1721 72.288ZM16.8013 25.9785C23.5783 17.8838 31.7907 11.5303 41.4385 6.91819C51.0863 2.30606 61.3695 0 72.288 0C83.2065 0 93.4897 2.30606 103.137 6.91819C112.785 11.5303 120.998 17.8838 127.775 25.9785L72.288 81.4652L16.8013 25.9785ZM11.4362 111.256C3.81206 99.3019 0 86.3126 0 72.288C0 58.2634 3.81206 45.2741 11.4362 33.3203L50.4039 72.288L11.4362 111.256ZM56.7574 78.6414L66.7817 88.8069C67.3464 89.2776 68.0759 89.6541 68.9701 89.9364C69.8643 90.2188 70.6408 90.36 71.2997 90.36H72.288C74.7353 90.4541 76.5707 89.9364 77.7943 88.8069L87.8186 78.6414L127.775 118.598C120.998 126.692 112.785 133.046 103.137 137.658C93.4897 142.27 83.2065 144.576 72.288 144.576C61.3695 144.576 51.0863 142.27 41.4385 137.658C31.7907 133.046 23.5783 126.692 16.8013 118.598L56.7574 78.6414Z" fill="#241AFF"/>
</g>
<defs>
<clipPath id="clip0_467_538">
<rect width="144.576" height="144.576" fill="white"/>
</clipPath>
</defs>
</svg>
