<svg width="145" height="145" viewBox="0 0 145 145" fill="none" xmlns="http://www.w3.org/2000/svg">
<path d="M72.288 0C32.3639 0 0 32.3639 0 72.288C0 112.212 32.3639 144.576 72.288 144.576C112.212 144.576 144.576 112.212 144.576 72.288C144.576 32.3639 112.212 0 72.288 0ZM54.5925 102.25H39.9542V55.1422H54.5925V102.25ZM47.183 49.3591C42.5596 49.3591 39.5702 46.0836 39.5702 42.0325C39.5702 37.8985 42.6499 34.7208 47.3712 34.7208C52.0925 34.7208 54.9841 37.8985 55.0744 42.0325C55.0744 46.0836 52.0925 49.3591 47.183 49.3591ZM108.056 102.25H93.4172V76.1434C93.4172 70.0667 91.2937 65.9402 86.0001 65.9402C81.9565 65.9402 79.5545 68.7338 78.4927 71.4221C78.1012 72.3784 78.0033 73.7338 78.0033 75.0816V102.242H63.3574V70.1645C63.3574 64.2836 63.1692 59.3665 62.9734 55.1347H75.6916L76.3617 61.6782H76.6554C78.5831 58.606 83.3044 54.0729 91.2034 54.0729C100.834 54.0729 108.056 60.5261 108.056 74.3964V102.25Z" fill="#241AFF"/>
</svg>
