<svg width="1440" height="794" viewBox="0 0 1440 794" fill="none" xmlns="http://www.w3.org/2000/svg">
<path fill-rule="evenodd" clip-rule="evenodd" d="M0 0H1440V794H960.985C965.308 791.407 969.608 788.817 973.884 786.229C1055.18 737.037 1127.62 688.853 1174.64 639.86C1259.55 551.383 1300.52 464.092 1269.88 374.507C1253.41 326.367 1228.21 297.703 1199.79 287.764C1172.32 278.159 1142.14 286.144 1114.43 310.37C1090.43 331.356 1068.22 364.566 1051.07 409.286C1087.18 260.777 1072.23 165.68 1033.18 111.57C992.167 54.7562 924.815 43.4282 862.998 62.6617C791.848 84.799 727.698 147.515 719.001 228.49C710.319 147.516 646.285 84.7996 575.26 62.6618C513.552 43.4279 446.319 54.7565 405.382 111.571C366.397 165.677 351.473 260.766 387.513 409.262C370.397 364.554 348.235 331.353 324.281 310.371C296.622 286.144 266.494 278.159 239.071 287.764C210.695 297.704 185.542 326.368 169.104 374.507C138.514 464.091 179.413 551.382 264.176 639.86C311.112 688.852 383.419 737.036 464.569 786.229C468.838 788.816 473.131 791.407 477.446 794H0V0ZM762.595 794H720L720 449.057C740.385 424.714 757.669 413.436 772.147 411.021C786.581 408.614 798.478 414.984 808.203 426.596C817.95 438.234 825.425 455.051 830.898 473.216C836.346 491.298 839.785 510.635 841.524 527.353C816.739 619.85 788.195 712.25 762.595 794ZM831.278 794H764.691C790.264 712.328 818.765 620.036 843.503 527.692C861.928 458.917 878.273 390.089 889.778 325.562C923.265 303.716 949.478 299.464 969.956 305.136C990.529 310.834 1005.58 326.618 1016.51 345.305C1027.44 363.985 1034.19 385.447 1038.2 402.269C1040.21 410.674 1041.53 417.908 1042.35 423.039C1042.75 425.604 1043.04 427.642 1043.22 429.038C1043.31 429.735 1043.38 430.272 1043.42 430.634C1043.43 430.772 1043.45 430.884 1043.46 430.971C1038.13 447.515 1030.49 467.103 1021.34 490.277C1020.51 492.375 1019.67 494.502 1018.82 496.659C1010.23 518.399 1000.45 543.146 990.112 571.279C960.446 630.214 908.417 698.577 855.799 763.821C847.612 773.971 839.411 784.047 831.278 794ZM901.023 794H833.861C841.654 784.46 849.51 774.805 857.356 765.076C909.867 699.966 961.929 631.585 991.731 572.51C1013.6 565.906 1028.94 565.593 1039.34 569.288C1049.73 572.978 1055.36 580.718 1057.72 590.617C1060.08 600.567 1059.12 612.671 1056.26 624.875C1053.41 637.023 1048.7 649.182 1043.63 659.259C1004.54 706.407 953.147 751.945 901.023 794ZM957.095 794H904.206C955.743 752.319 1006.5 707.193 1045.24 660.448C1078.86 619.888 1109.96 578.786 1136.07 538.831C1158.23 534.45 1173 536.01 1182.37 541.231C1191.74 546.444 1195.93 555.427 1196.64 566.399C1197.36 577.406 1194.55 590.31 1190 603.083C1185.47 615.801 1179.23 628.31 1173.11 638.557C1126.29 687.31 1054.11 735.349 972.849 784.518C967.634 787.674 962.381 790.834 957.095 794ZM718 449.057V794H675.484C649.93 712.25 621.437 619.85 596.697 527.353C598.432 510.635 601.866 491.298 607.304 473.215C612.767 455.05 620.229 438.234 629.959 426.595C639.666 414.983 651.541 408.614 665.947 411.021C680.399 413.436 697.651 424.714 718 449.057ZM594.717 527.691C619.412 620.036 647.862 712.328 673.388 794H606.924C598.805 784.047 590.619 773.972 582.447 763.821C529.923 698.578 477.987 630.214 448.374 571.279C438.052 543.147 428.292 518.4 419.718 496.66L419.717 496.657L418.275 493.002C417.915 492.088 417.557 491.18 417.201 490.277C408.07 467.104 400.445 447.516 395.125 430.971L395.135 430.881L395.152 430.738L395.164 430.634C395.206 430.272 395.271 429.735 395.361 429.037C395.542 427.642 395.825 425.603 396.234 423.038C397.051 417.908 398.369 410.674 400.371 402.269C404.377 385.447 411.112 363.985 422.022 345.305C432.937 326.617 447.958 310.834 468.493 305.136C488.934 299.464 515.098 303.715 548.526 325.562C560.009 390.089 576.325 458.917 594.717 527.691ZM580.889 765.075C588.721 774.804 596.563 784.459 604.343 794H537.303C485.272 751.945 433.972 706.408 394.951 659.259C389.892 649.183 385.19 637.024 382.347 624.876C379.49 612.671 378.53 600.567 380.891 590.616C383.24 580.717 388.86 572.977 399.23 569.288C409.618 565.594 424.922 565.906 446.755 572.51C476.503 631.584 528.472 699.965 580.889 765.075ZM393.337 660.447C432.009 707.193 482.678 752.319 534.124 794H481.331C476.055 790.834 470.812 787.674 465.606 784.518C384.494 735.349 312.434 687.311 265.699 638.558C259.596 628.311 253.368 615.801 248.843 603.084C244.298 590.311 241.5 577.406 242.214 566.399C242.925 555.426 247.111 546.443 256.455 541.231C265.815 536.01 280.555 534.45 302.672 538.831C328.735 578.785 359.783 619.887 393.337 660.447ZM550.425 324.822C561.614 387.783 577.421 454.874 595.281 522.043C597.162 506.46 600.454 489.048 605.389 472.639C610.885 454.365 618.443 437.251 628.424 425.312C638.428 413.346 650.957 406.489 666.277 409.048C681.057 411.518 698.198 422.724 718 445.956V247.234C718 158.569 650.795 88.5546 575.253 64.7556C567.118 73.2902 560.657 85.8561 555.755 101.888C550.77 118.188 547.416 138.004 545.529 160.661C541.755 205.966 543.855 262.522 550.425 324.822ZM573.129 64.099C512.43 45.7104 446.967 57.2774 407.005 112.74C367.063 168.174 352.363 267.748 393.774 425.902C393.911 424.958 394.072 423.895 394.259 422.724C395.082 417.553 396.41 410.269 398.425 401.805C402.454 384.891 409.245 363.216 420.295 344.296C431.342 325.383 446.717 309.102 467.958 303.209C488.851 297.411 515.166 301.732 548.221 322.981C541.814 261.426 539.789 205.475 543.536 160.495C545.43 137.75 548.802 117.784 553.842 101.303C558.66 85.549 565.021 72.9181 573.129 64.099ZM389.783 652.985C385.999 644.427 382.635 634.884 380.399 625.332C377.509 612.984 376.483 600.533 378.945 590.154C381.42 579.724 387.436 571.361 398.56 567.404C409.283 563.59 424.609 563.923 445.828 570.147C435.761 542.788 426.245 518.66 417.855 497.388L417.854 497.386C417.005 495.232 416.167 493.107 415.341 491.01C406.177 467.755 398.502 448.04 393.156 431.379C375.359 375.922 350.257 335.782 322.963 311.876C295.799 288.082 266.545 280.417 240.081 289.531C223.355 318.62 223.229 355.818 235.355 398.138C247.522 440.604 271.985 488.08 304.118 537.386C328.854 575.344 358.12 614.362 389.783 652.985ZM237.196 290.595C210.648 301.049 186.83 328.784 170.996 375.153C141.466 461.633 179.219 546.228 259.925 632.462C255.144 623.687 250.53 613.792 246.958 603.754C242.373 590.867 239.479 577.666 240.218 566.27C240.959 554.84 245.373 545.122 255.481 539.484C265.167 534.082 279.89 532.54 301.158 536.503C269.604 487.822 245.514 440.857 233.432 398.689C221.515 357.096 221.244 320.029 237.196 290.595ZM809.736 425.311C819.735 437.251 827.307 454.364 832.813 472.639C837.757 489.051 841.056 506.467 842.94 522.052C860.833 454.88 876.668 387.785 887.878 324.822C894.46 262.522 896.563 205.966 892.783 160.661C890.893 138.004 887.533 118.189 882.539 101.888C877.627 85.856 871.155 73.2898 863.005 64.7551C787.326 88.554 720 158.57 720 247.234V445.96C739.84 422.724 757.011 411.518 771.818 409.048C787.164 406.489 799.714 413.345 809.736 425.311ZM1031.56 112.741C991.521 57.2776 925.94 45.7101 865.131 64.0992C873.253 72.9182 879.625 85.5488 884.452 101.302C889.501 117.783 892.879 137.75 894.776 160.494C898.529 205.476 896.501 261.427 890.082 322.983C923.198 301.732 949.56 297.411 970.49 303.208C991.768 309.102 1007.17 325.382 1018.24 344.295C1029.31 363.216 1036.11 384.891 1040.15 401.805C1042.17 410.268 1043.5 417.553 1044.32 422.723C1044.51 423.899 1044.67 424.965 1044.81 425.911C1086.29 267.751 1071.57 168.176 1031.56 112.741ZM992.659 570.147C1013.92 563.923 1029.27 563.59 1040.01 567.404C1051.16 571.36 1057.18 579.723 1059.66 590.154C1062.13 600.533 1061.1 612.985 1058.2 625.332C1055.96 634.887 1052.59 644.433 1048.8 652.993C1080.52 614.367 1109.84 575.346 1134.63 537.386C1166.82 488.079 1191.32 440.604 1203.51 398.138C1215.66 355.817 1215.53 318.62 1198.78 289.531C1172.26 280.416 1142.96 288.082 1115.74 311.876C1088.4 335.783 1063.25 375.922 1045.43 431.38C1040.07 448.04 1032.38 467.756 1023.2 491.011C1022.38 493.102 1021.54 495.222 1020.69 497.371L1020.68 497.391L1020.68 497.401C1012.27 518.67 1002.74 542.794 992.659 570.147ZM1137.59 536.504C1158.89 532.54 1173.64 534.081 1183.35 539.484C1193.47 545.122 1197.89 554.839 1198.64 566.27C1199.38 577.666 1196.48 590.867 1191.88 603.755C1188.31 613.795 1183.68 623.693 1178.89 632.47C1259.75 546.233 1297.57 461.635 1267.99 375.154C1252.12 328.783 1228.26 301.047 1201.66 290.594C1217.64 320.028 1217.37 357.096 1205.43 398.69C1193.33 440.857 1169.2 487.822 1137.59 536.504Z" fill="#241AFF"/>
</svg>
