<svg width="2136" height="1024" viewBox="0 0 2136 1024" fill="none" xmlns="http://www.w3.org/2000/svg">
<g clip-path="url(#clip0_409_214)">
<rect width="2136" height="1024" fill="#F6F7FA"/>
<path fill-rule="evenodd" clip-rule="evenodd" d="M273.477 325.666C337.341 315.364 388.713 351.956 416.521 404.865C450.955 470.381 449.453 561.264 390.742 619.975L-61.1213 1071.84L-61.5114 1070.05C-73.7958 1013.75 -88.8015 956.263 -103.49 899.994C-111.943 867.615 -120.29 835.639 -127.954 804.52C-148.921 719.378 -164.767 640.668 -163.496 578.014C-161.201 464.878 -130.999 381.16 -52.5253 342.706C-10.3667 322.047 24.801 319.786 49.8649 331.868C74.0892 343.545 88.5879 368.48 90.8693 402.384C92.8277 431.489 85.7992 467.271 68.1684 507.204C141.261 387.479 212.831 335.449 273.477 325.666ZM58.5055 527.421C51.1956 541.686 43.407 559.44 34.2643 580.518C33.4365 582.427 32.5976 584.362 31.747 586.325C23.1725 606.11 13.4115 628.633 1.80993 653.732C-17.2677 711.525 -27.9041 790.061 -36.1213 866.956C-38.3597 887.902 -40.4188 908.729 -42.4206 928.978C-47.4734 980.087 -52.1617 1027.51 -58.451 1063.87C-43.6697 1036.38 -27.215 1004.87 -9.41059 970.778C30.1665 894.992 76.4136 806.434 125.78 720.913C158.61 664.038 192.833 608.485 227.409 558.892C219.806 522.821 205.485 502.974 188.452 493.326C171.333 483.631 151.24 484.102 131.925 489.153C112.618 494.202 94.2239 503.794 80.6351 512.145C73.8458 516.318 68.2674 520.173 64.3881 522.984C62.4486 524.39 60.9344 525.534 59.9063 526.326C59.3923 526.721 58.9999 527.029 58.7368 527.237C58.6437 527.311 58.5668 527.372 58.5064 527.42L58.5055 527.421ZM229.276 559.711C195.594 607.993 162.236 661.964 130.16 717.333C141.492 708.472 154.888 699.362 168.697 691.95C184.215 683.621 200.329 677.395 214.658 676.131C229.022 674.865 241.715 678.588 250.081 690.3C258.129 701.568 262.025 720.043 259.852 748.037L389.328 618.561C447.119 560.769 448.867 471.227 415.036 406.341C404.178 406.599 391.786 410.565 378.149 417.803C364.264 425.173 349.151 435.902 333.141 449.444C301.129 476.524 265.615 514.782 229.276 559.711ZM413.996 404.375C386.305 352.775 336.015 317.604 273.796 327.64C211.61 337.671 137.138 392.903 61.1207 522.901C61.7511 522.433 62.4502 521.919 63.2145 521.365C67.127 518.53 72.7478 514.645 79.5879 510.441C93.2578 502.04 111.843 492.337 131.419 487.218C150.988 482.101 171.682 481.53 189.437 491.586C206.877 501.464 221.256 521.465 229.017 556.854C264.946 512.565 300.085 474.787 331.85 447.917C347.926 434.318 363.159 423.495 377.211 416.037C390.592 408.934 402.958 404.853 413.996 404.375ZM257.664 750.225C260.233 721.066 256.309 702.461 248.453 691.463C240.624 680.502 228.736 676.898 214.834 678.123C200.896 679.352 185.059 685.438 169.643 693.713C154.303 701.947 139.454 712.308 127.42 722.073C78.1077 807.511 31.936 895.925 -7.60607 971.644C-25.3099 1005.55 -41.6848 1036.9 -56.4175 1064.31L257.664 750.225ZM-60.1357 1061.86C-54.0042 1025.81 -49.3932 979.172 -44.4205 928.874C-42.4168 908.606 -40.3543 887.745 -38.11 866.743C-29.911 790.019 -19.2856 711.446 -0.205609 653.458C-10.1638 634.901 -19.9507 624.715 -29.1262 620.346C-38.2859 615.985 -46.9807 617.354 -54.9544 622.264C-62.9737 627.202 -70.2337 635.713 -76.3236 645.536C-82.383 655.31 -87.2366 666.306 -90.5005 676.179C-96.5579 741.206 -90.489 815.554 -82.0636 885.686C-78.9691 911.443 -75.555 936.643 -72.3094 960.597C-67.1966 998.334 -62.5023 1032.98 -60.1357 1061.86ZM-89.7316 668.149C-86.65 660.247 -82.693 652.015 -78.0235 644.482C-71.8561 634.534 -64.3978 625.73 -56.003 620.561C-47.5625 615.364 -38.1474 613.836 -28.2664 618.541C-18.7712 623.062 -8.98406 633.275 0.807598 651.131C12.0427 626.762 21.5389 604.85 29.9128 585.528C30.763 583.566 31.6017 581.631 32.4295 579.722C41.6072 558.563 49.4503 540.683 56.8235 526.318C81.3574 478.517 91.1226 435.938 88.8738 402.519C86.6365 369.271 72.5302 345.179 49.3287 333.831C19.4613 341.87 -4.86068 366.025 -24.5269 401.538C-44.2663 437.182 -59.2378 484.134 -70.3908 537.299C-78.9424 578.063 -85.2432 622.452 -89.7316 668.149ZM46.5348 332.545C22.4012 322.116 -11.1661 324.666 -51.6452 344.502C-127.182 381.517 -157.702 461.117 -161.278 569.817C-158.699 561.129 -155.318 551.87 -151.194 543.175C-145.784 531.767 -139.06 521.253 -131.132 514.292C-123.178 507.309 -113.927 503.843 -103.609 506.783C-93.7575 509.59 -83.1479 518.184 -71.8615 534.584C-60.7406 482.27 -45.8657 435.942 -26.2765 400.569C-6.9767 365.718 16.9724 341.374 46.5348 332.545ZM-72.4345 537.3C-84.026 520.007 -94.6625 511.411 -104.157 508.706C-113.634 506.006 -122.203 509.115 -129.812 515.795C-137.447 522.498 -144.029 532.734 -149.387 544.032C-154.72 555.277 -158.806 567.5 -161.499 578.168C-162.742 640.51 -146.969 718.943 -126.012 804.041C-118.362 835.103 -110.022 867.054 -101.572 899.422C-88.1038 951.017 -74.3589 1003.67 -62.6958 1055.47C-65.1914 1028.03 -69.5522 995.845 -74.2774 960.972C-77.525 937.005 -80.9447 911.767 -84.0493 885.924C-92.4823 815.73 -98.5772 741.158 -92.4813 675.88C-87.963 627.497 -81.4538 580.396 -72.4345 537.3Z" fill="#E9EEFF"/>
<path fill-rule="evenodd" clip-rule="evenodd" d="M683.043 735.229C693.344 671.365 656.752 619.993 603.844 592.186C538.328 557.751 447.445 559.253 388.733 617.964L-63.1299 1069.83L-61.3419 1070.22C-5.03664 1082.5 52.4459 1097.51 108.715 1112.2C141.093 1120.65 173.07 1129 204.189 1136.66C289.33 1157.63 368.041 1173.47 430.695 1172.2C543.831 1169.91 627.548 1139.71 666.003 1061.23C686.662 1019.07 688.923 983.905 676.841 958.841C665.163 934.617 640.229 920.118 606.324 917.837C577.22 915.878 541.438 922.907 501.504 940.538C621.229 867.445 673.26 795.875 683.043 735.229ZM481.288 950.201C467.023 957.511 449.269 965.299 428.191 974.442C426.282 975.27 424.346 976.109 422.384 976.959C402.599 985.534 380.076 995.295 354.977 1006.9C297.184 1025.97 218.648 1036.61 141.753 1044.83C120.806 1047.07 99.9793 1049.12 79.7311 1051.13C28.6219 1056.18 -18.8003 1060.87 -55.1563 1067.16C-27.6718 1052.38 3.83684 1035.92 37.9304 1018.12C113.716 978.54 202.275 932.292 287.796 882.926C344.67 850.096 400.224 815.874 449.817 781.297C485.888 788.9 505.735 803.221 515.382 820.254C525.078 837.373 524.607 857.466 519.556 876.781C514.507 896.088 504.915 914.482 496.564 928.071C492.391 934.86 488.536 940.439 485.724 944.318C484.319 946.258 483.175 947.772 482.383 948.8C481.987 949.314 481.68 949.706 481.472 949.969C481.398 950.062 481.337 950.139 481.289 950.2L481.288 950.201ZM448.998 779.43C400.716 813.112 346.744 846.47 291.376 878.546C300.236 867.214 309.346 853.818 316.758 840.009C325.088 824.491 331.314 808.377 332.578 794.048C333.844 779.685 330.121 766.991 318.408 758.625C307.14 750.577 288.666 746.681 260.672 748.854L390.148 619.378C447.939 561.587 537.481 559.839 602.368 593.67C602.11 604.528 598.144 616.92 590.906 630.558C583.536 644.442 572.807 659.555 559.264 675.565C532.185 707.577 493.927 743.091 448.998 779.43ZM604.334 594.71C655.934 622.402 691.105 672.691 681.068 734.91C671.037 797.096 615.805 871.568 485.808 947.585C486.276 946.955 486.79 946.256 487.344 945.492C490.179 941.579 494.064 935.958 498.268 929.118C506.669 915.448 516.371 896.863 521.491 877.287C526.608 857.718 527.179 837.024 517.123 819.269C507.245 801.829 487.244 787.45 451.855 779.689C496.144 743.76 533.921 708.621 560.791 676.857C574.391 660.78 585.214 645.547 592.672 631.495C599.774 618.114 603.856 605.748 604.334 594.71ZM258.484 751.043C287.643 748.474 306.248 752.397 317.246 760.253C328.207 768.082 331.811 779.97 330.585 793.873C329.356 807.81 323.271 823.647 314.996 839.063C306.762 854.403 296.401 869.252 286.636 881.286C201.198 930.598 112.784 976.77 37.0646 1016.31C3.16353 1034.02 -28.1927 1050.39 -55.5976 1065.12L258.484 751.043ZM-53.1479 1068.84C-17.1028 1062.71 29.5365 1058.1 79.835 1053.13C100.102 1051.12 120.964 1049.06 141.966 1046.82C218.69 1038.62 297.263 1027.99 355.251 1008.91C373.808 1018.87 383.993 1028.66 388.362 1037.83C392.724 1046.99 391.354 1055.69 386.445 1063.66C381.507 1071.68 372.996 1078.94 363.172 1085.03C353.398 1091.09 342.403 1095.94 332.53 1099.21C267.503 1105.26 193.154 1099.2 123.023 1090.77C97.2654 1087.68 72.0661 1084.26 48.1114 1081.02C10.3748 1075.9 -24.273 1071.21 -53.1479 1068.84ZM340.559 1098.44C348.462 1095.36 356.694 1091.4 364.226 1086.73C374.174 1080.56 382.979 1073.1 388.148 1064.71C393.345 1056.27 394.873 1046.85 390.168 1036.97C385.647 1027.48 375.433 1017.69 357.577 1007.9C381.947 996.663 403.859 987.167 423.181 978.793C425.143 977.943 427.078 977.104 428.987 976.277C450.146 967.099 468.026 959.256 482.391 951.883C530.192 927.349 572.77 917.584 606.19 919.832C639.438 922.07 663.53 936.176 674.878 959.377C666.839 989.245 642.683 1013.57 607.171 1033.23C571.527 1052.97 524.575 1067.94 471.409 1079.1C430.645 1087.65 386.257 1093.95 340.559 1098.44ZM676.164 962.171C686.593 986.305 684.043 1019.87 664.207 1060.35C627.192 1135.89 547.591 1166.41 438.891 1169.98C447.58 1167.41 456.838 1164.02 465.534 1159.9C476.942 1154.49 487.456 1147.77 494.416 1139.84C501.399 1131.88 504.866 1122.63 501.926 1112.32C499.119 1102.46 490.525 1091.85 474.125 1080.57C526.439 1069.45 572.767 1054.57 608.14 1034.98C642.991 1015.68 667.335 991.734 676.164 962.171ZM471.408 1081.14C488.702 1092.73 497.297 1103.37 500.003 1112.86C502.703 1122.34 499.594 1130.91 492.913 1138.52C486.211 1146.15 475.975 1152.74 464.677 1158.09C453.431 1163.43 441.209 1167.51 430.54 1170.2C368.199 1171.45 289.765 1155.67 204.667 1134.72C173.606 1127.07 141.655 1118.73 109.286 1110.28C57.6917 1096.81 5.03737 1083.06 -46.761 1071.4C-19.3197 1073.9 12.8636 1078.26 47.7365 1082.98C71.7041 1086.23 96.9421 1089.65 122.784 1092.76C192.979 1101.19 267.551 1107.28 332.829 1101.19C381.212 1096.67 428.313 1090.16 471.408 1081.14Z" fill="#E9EEFF"/>
<path fill-rule="evenodd" clip-rule="evenodd" d="M1825.23 325.666C1761.37 315.364 1709.99 351.956 1682.19 404.865C1647.75 470.381 1649.25 561.264 1707.97 619.975L2159.83 1071.84L2160.22 1070.05C2172.5 1013.75 2187.51 956.263 2202.2 899.994C2210.65 867.615 2219 835.639 2226.66 804.52C2247.63 719.378 2263.47 640.668 2262.2 578.014C2259.91 464.878 2229.71 381.16 2151.23 342.706C2109.07 322.047 2073.91 319.786 2048.84 331.868C2024.62 343.545 2010.12 368.48 2007.84 402.384C2005.88 431.489 2012.91 467.271 2030.54 507.204C1957.45 387.479 1885.88 335.449 1825.23 325.666ZM2040.2 527.421C2047.51 541.686 2055.3 559.44 2064.44 580.518C2065.27 582.427 2066.11 584.362 2066.96 586.325C2075.53 606.11 2085.3 628.633 2096.9 653.732C2115.98 711.525 2126.61 790.061 2134.83 866.956C2137.07 887.902 2139.13 908.729 2141.13 928.978C2146.18 980.087 2150.87 1027.51 2157.16 1063.87C2142.38 1036.38 2125.92 1004.87 2108.12 970.778C2068.54 894.992 2022.29 806.434 1972.93 720.913C1940.1 664.038 1905.87 608.485 1871.3 558.892C1878.9 522.821 1893.22 502.974 1910.26 493.326C1927.37 483.631 1947.47 484.102 1966.78 489.153C1986.09 494.202 2004.48 503.794 2018.07 512.145C2024.86 516.318 2030.44 520.173 2034.32 522.984C2036.26 524.39 2037.77 525.534 2038.8 526.326C2039.32 526.721 2039.71 527.029 2039.97 527.237C2040.06 527.311 2040.14 527.372 2040.2 527.42L2040.2 527.421ZM1869.43 559.711C1903.11 607.993 1936.47 661.964 1968.55 717.333C1957.22 708.472 1943.82 699.362 1930.01 691.95C1914.49 683.621 1898.38 677.395 1884.05 676.131C1869.69 674.865 1856.99 678.588 1848.63 690.3C1840.58 701.568 1836.68 720.043 1838.86 748.037L1709.38 618.561C1651.59 560.769 1649.84 471.227 1683.67 406.341C1694.53 406.599 1706.92 410.565 1720.56 417.803C1734.44 425.173 1749.56 435.902 1765.57 449.444C1797.58 476.524 1833.09 514.782 1869.43 559.711ZM1684.71 404.375C1712.4 352.775 1762.69 317.604 1824.91 327.64C1887.1 337.671 1961.57 392.903 2037.59 522.901C2036.96 522.433 2036.26 521.919 2035.49 521.365C2031.58 518.53 2025.96 514.645 2019.12 510.441C2005.45 502.04 1986.86 492.337 1967.29 487.218C1947.72 482.101 1927.03 481.53 1909.27 491.586C1891.83 501.464 1877.45 521.465 1869.69 556.854C1833.76 512.565 1798.62 474.787 1766.86 447.917C1750.78 434.318 1735.55 423.495 1721.5 416.037C1708.12 408.934 1695.75 404.853 1684.71 404.375ZM1841.04 750.225C1838.47 721.066 1842.4 702.461 1850.25 691.463C1858.08 680.502 1869.97 676.898 1883.87 678.123C1897.81 679.352 1913.65 685.438 1929.06 693.713C1944.4 701.947 1959.25 712.308 1971.29 722.073C2020.6 807.511 2066.77 895.925 2106.31 971.644C2124.02 1005.55 2140.39 1036.9 2155.12 1064.31L1841.04 750.225ZM2158.84 1061.86C2152.71 1025.81 2148.1 979.172 2143.13 928.874C2141.12 908.606 2139.06 887.745 2136.82 866.743C2128.62 790.019 2117.99 711.446 2098.91 653.458C2108.87 634.901 2118.66 624.715 2127.83 620.346C2136.99 615.985 2145.69 617.354 2153.66 622.264C2161.68 627.202 2168.94 635.713 2175.03 645.536C2181.09 655.31 2185.94 666.306 2189.21 676.179C2195.27 741.206 2189.2 815.554 2180.77 885.686C2177.68 911.443 2174.26 936.643 2171.02 960.597C2165.9 998.334 2161.21 1032.98 2158.84 1061.86ZM2188.44 668.149C2185.36 660.247 2181.4 652.015 2176.73 644.482C2170.56 634.534 2163.11 625.73 2154.71 620.561C2146.27 615.364 2136.85 613.836 2126.97 618.541C2117.48 623.062 2107.69 633.275 2097.9 651.131C2086.66 626.762 2077.17 604.85 2068.79 585.528C2067.94 583.566 2067.11 581.631 2066.28 579.722C2057.1 558.563 2049.26 540.683 2041.88 526.318C2017.35 478.517 2007.58 435.938 2009.83 402.519C2012.07 369.271 2026.18 345.179 2049.38 333.831C2079.25 341.87 2103.57 366.025 2123.23 401.538C2142.97 437.182 2157.95 484.134 2169.1 537.299C2177.65 578.063 2183.95 622.452 2188.44 668.149ZM2052.17 332.545C2076.31 322.116 2109.87 324.666 2150.35 344.502C2225.89 381.517 2256.41 461.117 2259.99 569.817C2257.41 561.129 2254.03 551.87 2249.9 543.175C2244.49 531.767 2237.77 521.253 2229.84 514.292C2221.89 507.309 2212.63 503.843 2202.32 506.783C2192.46 509.59 2181.86 518.184 2170.57 534.584C2159.45 482.27 2144.57 435.942 2124.98 400.569C2105.68 365.718 2081.74 341.374 2052.17 332.545ZM2171.14 537.3C2182.73 520.007 2193.37 511.411 2202.86 508.706C2212.34 506.006 2220.91 509.115 2228.52 515.795C2236.15 522.498 2242.74 532.734 2248.09 544.032C2253.43 555.277 2257.51 567.5 2260.21 578.168C2261.45 640.51 2245.68 718.943 2224.72 804.041C2217.07 835.103 2208.73 867.054 2200.28 899.422C2186.81 951.017 2173.07 1003.67 2161.4 1055.47C2163.9 1028.03 2168.26 995.845 2172.98 960.972C2176.23 937.005 2179.65 911.767 2182.76 885.924C2191.19 815.73 2197.28 741.158 2191.19 675.88C2186.67 627.497 2180.16 580.396 2171.14 537.3Z" fill="#E9EEFF"/>
<path fill-rule="evenodd" clip-rule="evenodd" d="M1415.66 735.229C1405.36 671.365 1441.96 619.993 1494.86 592.186C1560.38 557.751 1651.26 559.253 1709.97 617.964L2161.84 1069.83L2160.05 1070.22C2103.74 1082.5 2046.26 1097.51 1989.99 1112.2C1957.61 1120.65 1925.64 1129 1894.52 1136.66C1809.38 1157.63 1730.67 1173.47 1668.01 1172.2C1554.88 1169.91 1471.16 1139.71 1432.7 1061.23C1412.05 1019.07 1409.78 983.905 1421.87 958.841C1433.54 934.617 1458.48 920.118 1492.38 917.837C1521.49 915.878 1557.27 922.907 1597.2 940.538C1477.48 867.445 1425.45 795.875 1415.66 735.229ZM1617.42 950.201C1631.68 957.511 1649.44 965.299 1670.52 974.442C1672.43 975.27 1674.36 976.109 1676.32 976.959C1696.11 985.534 1718.63 995.295 1743.73 1006.9C1801.52 1025.97 1880.06 1036.61 1956.95 1044.83C1977.9 1047.07 1998.73 1049.12 2018.98 1051.13C2070.09 1056.18 2117.51 1060.87 2153.86 1067.16C2126.38 1052.38 2094.87 1035.92 2060.78 1018.12C1984.99 978.54 1896.43 932.292 1810.91 882.926C1754.04 850.096 1698.48 815.874 1648.89 781.297C1612.82 788.9 1592.97 803.221 1583.33 820.254C1573.63 837.373 1574.1 857.466 1579.15 876.781C1584.2 896.088 1593.79 914.482 1602.14 928.071C1606.32 934.86 1610.17 940.439 1612.98 944.318C1614.39 946.258 1615.53 947.772 1616.32 948.8C1616.72 949.314 1617.03 949.706 1617.24 949.969C1617.31 950.062 1617.37 950.139 1617.42 950.2L1617.42 950.201ZM1649.71 779.43C1697.99 813.112 1751.96 846.47 1807.33 878.546C1798.47 867.214 1789.36 853.818 1781.95 840.009C1773.62 824.491 1767.39 808.377 1766.13 794.048C1764.86 779.685 1768.59 766.991 1780.3 758.625C1791.57 750.577 1810.04 746.681 1838.04 748.854L1708.56 619.378C1650.77 561.587 1561.23 559.839 1496.34 593.67C1496.6 604.528 1500.56 616.92 1507.8 630.558C1515.17 644.442 1525.9 659.555 1539.44 675.565C1566.52 707.577 1604.78 743.091 1649.71 779.43ZM1494.37 594.71C1442.77 622.402 1407.6 672.691 1417.64 734.91C1427.67 797.096 1482.9 871.568 1612.9 947.585C1612.43 946.955 1611.92 946.256 1611.36 945.492C1608.53 941.579 1604.64 935.958 1600.44 929.118C1592.04 915.448 1582.34 896.863 1577.22 877.287C1572.1 857.718 1571.53 837.024 1581.58 819.269C1591.46 801.829 1611.46 787.45 1646.85 779.689C1602.56 743.76 1564.79 708.621 1537.92 676.857C1524.32 660.78 1513.49 645.547 1506.04 631.495C1498.93 618.114 1494.85 605.748 1494.37 594.71ZM1840.22 751.043C1811.06 748.474 1792.46 752.397 1781.46 760.253C1770.5 768.082 1766.9 779.97 1768.12 793.873C1769.35 807.81 1775.44 823.647 1783.71 839.063C1791.95 854.403 1802.31 869.252 1812.07 881.286C1897.51 930.598 1985.92 976.77 2061.64 1016.31C2095.54 1034.02 2126.9 1050.39 2154.31 1065.12L1840.22 751.043ZM2151.86 1068.84C2115.81 1062.71 2069.17 1058.1 2018.87 1053.13C1998.61 1051.12 1977.74 1049.06 1956.74 1046.82C1880.02 1038.62 1801.44 1027.99 1743.46 1008.91C1724.9 1018.87 1714.71 1028.66 1710.35 1037.83C1705.98 1046.99 1707.35 1055.69 1712.26 1063.66C1717.2 1071.68 1725.71 1078.94 1735.53 1085.03C1745.31 1091.09 1756.3 1095.94 1766.18 1099.21C1831.2 1105.26 1905.55 1099.2 1975.68 1090.77C2001.44 1087.68 2026.64 1084.26 2050.6 1081.02C2088.33 1075.9 2122.98 1071.21 2151.86 1068.84ZM1758.15 1098.44C1750.25 1095.36 1742.01 1091.4 1734.48 1086.73C1724.53 1080.56 1715.73 1073.1 1710.56 1064.71C1705.36 1056.27 1703.83 1046.85 1708.54 1036.97C1713.06 1027.48 1723.27 1017.69 1741.13 1007.9C1716.76 996.663 1694.85 987.167 1675.53 978.793C1673.56 977.943 1671.63 977.104 1669.72 976.277C1648.56 967.099 1630.68 959.256 1616.32 951.883C1568.52 927.349 1525.94 917.584 1492.52 919.832C1459.27 922.07 1435.18 936.176 1423.83 959.377C1431.87 989.245 1456.02 1013.57 1491.54 1033.23C1527.18 1052.97 1574.13 1067.94 1627.3 1079.1C1668.06 1087.65 1712.45 1093.95 1758.15 1098.44ZM1422.54 962.171C1412.11 986.305 1414.66 1019.87 1434.5 1060.35C1471.52 1135.89 1551.12 1166.41 1659.82 1169.98C1651.13 1167.41 1641.87 1164.02 1633.17 1159.9C1621.77 1154.49 1611.25 1147.77 1604.29 1139.84C1597.31 1131.88 1593.84 1122.63 1596.78 1112.32C1599.59 1102.46 1608.18 1091.85 1624.58 1080.57C1572.27 1069.45 1525.94 1054.57 1490.57 1034.98C1455.72 1015.68 1431.37 991.734 1422.54 962.171ZM1627.3 1081.14C1610.01 1092.73 1601.41 1103.37 1598.7 1112.86C1596 1122.34 1599.11 1130.91 1605.79 1138.52C1612.5 1146.15 1622.73 1152.74 1634.03 1158.09C1645.28 1163.43 1657.5 1167.51 1668.17 1170.2C1730.51 1171.45 1808.94 1155.67 1894.04 1134.72C1925.1 1127.07 1957.05 1118.73 1989.42 1110.28C2041.02 1096.81 2093.67 1083.06 2145.47 1071.4C2118.03 1073.9 2085.84 1078.26 2050.97 1082.98C2027 1086.23 2001.77 1089.65 1975.92 1092.76C1905.73 1101.19 1831.16 1107.28 1765.88 1101.19C1717.5 1096.67 1670.39 1090.16 1627.3 1081.14Z" fill="#E9EEFF"/>
<path fill-rule="evenodd" clip-rule="evenodd" d="M1358.03 482.221C1320.16 534.663 1257.96 545.114 1200.88 527.365C1130.2 505.387 1067 440.062 1067 357.031L1067 -282L1068.54 -281.012C1117.04 -249.884 1168.3 -219.848 1218.47 -190.447C1247.35 -173.528 1275.86 -156.82 1303.28 -140.235C1378.31 -94.8569 1445.17 -50.4047 1488.58 -5.20317C1566.96 76.419 1604.8 156.972 1576.5 239.653C1561.3 284.072 1538.03 310.538 1511.76 319.717C1486.38 328.589 1458.49 321.21 1432.9 298.849C1410.94 279.654 1390.61 249.382 1374.84 208.678C1407.81 345.021 1394 432.42 1358.03 482.221ZM1367.38 187.55C1362.46 172.295 1355.41 154.233 1346.97 132.864C1346.21 130.929 1345.43 128.967 1344.64 126.978C1336.72 106.924 1327.69 84.0963 1318.15 58.1452C1290.77 3.78954 1242.76 -59.2648 1194.2 -119.448C1180.97 -135.843 1167.7 -152.026 1154.8 -167.759C1122.23 -207.471 1092.01 -244.319 1070.75 -274.474C1079.73 -244.587 1090.38 -210.672 1101.9 -173.975C1127.5 -92.4006 1157.42 2.92116 1182.99 98.3011C1199.99 161.732 1215.07 225.213 1225.69 284.73C1256.57 304.86 1280.73 308.767 1299.6 303.545C1318.56 298.296 1332.43 283.755 1342.52 266.526C1352.6 249.303 1358.83 229.514 1362.53 214C1364.38 206.249 1365.6 199.578 1366.35 194.847C1366.73 192.482 1366.99 190.602 1367.16 189.315C1367.24 188.672 1367.3 188.177 1367.34 187.844C1367.36 187.726 1367.37 187.628 1367.37 187.552L1367.38 187.55ZM1223.79 285.471C1213.47 227.514 1198.89 165.762 1182.42 103.93C1180.67 118.208 1177.64 134.122 1173.12 149.128C1168.03 165.99 1161.04 181.788 1151.8 192.813C1142.54 203.865 1130.94 210.208 1116.74 207.841C1103.08 205.564 1087.26 195.256 1069 173.925L1069 357.031C1069 438.761 1131.08 503.312 1200.89 525.272C1208.38 517.412 1214.34 505.845 1218.86 491.084C1223.47 476.054 1226.57 457.781 1228.32 436.885C1231.8 395.101 1229.86 342.936 1223.79 285.471ZM1203.01 525.927C1259.08 542.832 1319.51 532.142 1356.41 481.05C1393.29 429.985 1406.89 338.27 1368.72 192.596C1368.61 193.373 1368.48 194.23 1368.33 195.162C1367.57 199.934 1366.34 206.655 1364.47 214.464C1360.75 230.071 1354.47 250.073 1344.24 267.536C1334.03 284.992 1319.8 300.028 1300.13 305.472C1280.81 310.82 1256.5 306.844 1225.99 287.308C1231.9 344.03 1233.77 395.59 1230.31 437.051C1228.56 458.035 1225.44 476.46 1220.78 491.67C1216.34 506.154 1210.48 517.784 1203.01 525.927ZM1069 170.83C1087.8 193.265 1103.73 203.646 1117.07 205.869C1130.35 208.083 1141.31 202.226 1150.27 191.528C1159.26 180.804 1166.15 165.303 1171.2 148.551C1176.23 131.881 1179.4 114.055 1181.01 98.6405C1155.46 3.35799 1125.59 -91.8088 1100.01 -173.311C1088.56 -209.801 1077.96 -243.552 1069 -273.348L1069 170.83ZM1073.36 -274.245C1094.52 -244.421 1124.23 -208.182 1156.28 -169.099C1169.2 -153.351 1182.49 -137.142 1195.76 -120.704C1244.21 -60.6542 1292.26 2.41851 1319.77 56.9137C1339.93 62.9942 1354.05 63.276 1363.63 59.8771C1373.19 56.4841 1378.37 49.3677 1380.54 40.2579C1382.72 31.096 1381.83 19.9439 1379.19 8.69156C1376.57 -2.5043 1372.22 -13.7113 1367.55 -23.0005C1325.85 -73.2645 1268.99 -121.546 1213.44 -165.179C1193.04 -181.204 1172.81 -196.608 1153.57 -211.252C1123.27 -234.32 1095.45 -255.501 1073.36 -274.245ZM1372.68 -16.779C1376.09 -9.01223 1379.12 -0.393091 1381.14 8.23478C1383.81 19.6302 1384.77 31.1297 1382.48 40.7207C1380.19 50.3638 1374.61 58.1017 1364.3 61.7619C1354.39 65.2792 1340.25 64.9777 1320.7 59.2753C1329.98 84.4516 1338.76 106.66 1346.51 126.245C1347.29 128.233 1348.07 130.195 1348.83 132.129C1357.3 153.581 1364.4 171.77 1369.34 187.141C1385.8 238.289 1409 275.302 1434.22 297.343C1459.31 319.271 1486.32 326.332 1510.75 317.95C1526.19 291.146 1526.31 256.868 1515.1 217.85C1503.85 178.688 1481.24 134.902 1451.53 89.4218C1428.76 54.5504 1401.82 18.7078 1372.68 -16.779ZM1513.64 316.884C1538.08 307.193 1560.01 281.655 1574.61 239.005C1601.85 159.419 1567.14 81.552 1492.81 2.16139C1497.13 10.1283 1501.28 19.066 1504.52 28.1303C1508.76 40.023 1511.44 52.2119 1510.75 62.74C1510.07 73.3019 1505.98 82.2945 1496.6 87.5114C1487.65 92.4927 1474.07 93.9178 1454.49 90.3018C1483.62 135.157 1505.86 178.434 1517.02 217.298C1528.02 255.589 1528.3 289.737 1513.64 316.884ZM1452.98 87.9761C1473.4 92.008 1487 90.5646 1495.63 85.7637C1504.24 80.9719 1508.1 72.7142 1508.76 62.6102C1509.42 52.4725 1506.83 40.58 1502.63 28.8021C1498.45 17.0795 1492.7 5.54799 1487.06 -3.89995C1443.85 -48.8616 1377.24 -93.1687 1302.25 -138.523C1274.88 -155.078 1246.38 -171.773 1217.52 -188.686C1171.52 -215.646 1124.56 -243.159 1079.69 -271.539C1100.86 -253.9 1126.7 -234.226 1154.7 -212.908C1173.94 -198.257 1194.21 -182.829 1214.68 -166.751C1270.27 -123.079 1327.31 -74.6587 1369.16 -24.1899C1400.18 13.2171 1428.88 51.1251 1452.98 87.9761Z" fill="#E9EEFF"/>
<path fill-rule="evenodd" clip-rule="evenodd" d="M778.818 482.222C816.692 534.665 878.892 545.116 935.967 527.367C1006.64 505.389 1069.84 440.064 1069.84 357.033L1069.84 -281.998L1068.3 -281.01C1019.8 -249.882 968.548 -219.847 918.373 -190.445C889.501 -173.527 860.988 -156.818 833.564 -140.233C758.534 -94.8551 691.673 -50.4029 648.268 -5.20134C569.892 76.4209 532.05 156.974 560.348 239.655C575.551 284.074 598.819 310.54 625.086 319.719C650.472 328.591 678.356 321.212 703.943 298.851C725.908 279.656 746.24 249.384 762.01 208.68C729.036 345.023 742.852 432.422 778.818 482.222ZM769.472 187.552C774.39 172.297 781.437 154.235 789.877 132.866C790.641 130.931 791.416 128.969 792.203 126.98C800.13 106.926 809.154 84.0981 818.698 58.147C846.074 3.79137 894.086 -59.263 942.648 -119.446C955.877 -135.841 969.148 -152.024 982.05 -167.757C1014.62 -207.469 1044.83 -244.317 1066.09 -274.472C1057.11 -244.585 1046.47 -210.67 1034.95 -173.973C1009.35 -92.3988 979.428 2.92299 953.862 98.3029C936.86 161.734 921.777 225.215 911.159 284.732C880.276 304.862 856.116 308.769 837.25 303.547C818.289 298.298 804.415 283.756 794.329 266.527C784.247 249.305 778.022 229.516 774.319 214.002C772.468 206.251 771.25 199.58 770.495 194.849C770.117 192.484 769.856 190.604 769.688 189.317C769.605 188.674 769.545 188.179 769.506 187.846C769.492 187.728 769.481 187.63 769.472 187.554L769.472 187.552ZM913.058 285.473C923.382 227.516 937.957 165.764 954.428 103.932C956.176 118.21 959.206 134.124 963.73 149.13C968.812 165.992 975.804 181.79 985.043 192.815C994.304 203.867 1005.91 210.21 1020.11 207.843C1033.77 205.566 1049.59 195.258 1067.84 173.926L1067.84 357.033C1067.84 438.763 1005.76 503.314 935.961 525.274C928.466 517.413 922.507 505.847 917.983 491.085C913.376 476.056 910.276 457.783 908.531 436.887C905.043 395.102 906.984 342.938 913.058 285.473ZM933.835 525.928C877.768 542.834 817.338 532.144 780.439 481.052C743.56 429.987 729.956 338.272 768.126 192.597C768.24 193.374 768.371 194.232 768.52 195.164C769.282 199.936 770.509 206.657 772.373 214.466C776.099 230.073 782.38 250.075 792.603 267.538C802.821 284.993 817.051 300.03 836.716 305.474C856.033 310.821 880.343 306.846 910.854 287.31C904.943 344.032 903.077 395.592 906.538 437.053C908.29 458.037 911.408 476.462 916.071 491.672C920.51 506.155 926.368 517.786 933.835 525.928ZM1067.84 170.832C1049.04 193.267 1033.11 203.648 1019.78 205.87C1006.49 208.085 995.54 202.228 986.576 191.53C977.589 180.806 970.694 165.305 965.644 148.552C960.62 131.883 957.446 114.057 955.842 98.6423C981.386 3.35982 1011.26 -91.807 1036.84 -173.309C1048.29 -209.799 1058.88 -243.55 1067.84 -273.346L1067.84 170.832ZM1063.48 -274.243C1042.33 -244.42 1012.61 -208.18 980.563 -169.097C967.648 -153.349 954.356 -137.14 941.092 -120.702C892.637 -60.6524 844.591 2.42034 817.079 56.9155C796.915 62.996 782.793 63.2778 773.216 59.8789C763.655 56.4859 758.475 49.3696 756.308 40.2598C754.129 31.0978 755.014 19.9458 757.654 8.6934C760.281 -2.50247 764.624 -13.7095 769.297 -22.9987C810.995 -73.2627 867.859 -121.544 923.407 -165.177C943.808 -181.202 964.041 -196.606 983.274 -211.25C1013.57 -234.318 1041.39 -255.499 1063.48 -274.243ZM764.163 -16.7772C760.754 -9.0104 757.731 -0.39126 755.707 8.23661C753.033 19.632 752.082 31.1315 754.363 40.7225C756.656 50.3656 762.233 58.1036 772.547 61.7638C782.458 65.281 796.6 64.9795 816.15 59.2771C806.863 84.4535 798.084 106.662 790.342 126.246C789.556 128.235 788.78 130.196 788.016 132.131C779.544 153.582 772.447 171.771 767.503 187.143C751.051 238.291 727.848 275.304 702.627 297.345C677.535 319.273 650.525 326.334 626.095 317.952C610.659 291.148 610.542 256.869 621.747 217.852C632.993 178.69 655.607 134.904 685.314 89.4236C708.092 54.5522 735.024 18.7096 764.163 -16.7772ZM623.21 316.886C598.77 307.195 576.837 281.656 562.241 239.007C535.002 159.421 569.707 81.5539 644.041 2.16322C639.721 10.1301 635.565 19.0678 632.332 28.1321C628.091 40.0248 625.411 52.2138 626.095 62.7418C626.782 73.3037 630.872 82.2963 640.246 87.5132C649.198 92.4946 662.777 93.9196 682.354 90.3037C653.226 135.159 630.985 178.436 619.824 217.3C608.828 255.59 608.549 289.739 623.21 316.886ZM683.87 87.9779C663.445 92.0099 649.846 90.5665 641.219 85.7656C632.608 80.9738 628.748 72.716 628.091 62.6121C627.432 52.4743 630.015 40.5819 634.216 28.8039C638.396 17.0814 644.151 5.54982 649.79 -3.89812C692.993 -48.8598 759.607 -93.1668 834.599 -138.521C861.972 -155.076 890.463 -171.771 919.325 -188.685C965.332 -215.644 1012.28 -243.157 1057.16 -271.537C1035.99 -253.898 1010.15 -234.224 982.148 -212.907C962.904 -198.255 942.64 -182.827 922.171 -166.75C866.573 -123.078 809.533 -74.6569 767.685 -24.1881C736.668 13.219 707.965 51.127 683.87 87.9779Z" fill="#E9EEFF"/>
</g>
<defs>
<clipPath id="clip0_409_214">
<rect width="2136" height="1024" fill="white"/>
</clipPath>
</defs>
</svg>
