<svg width="2052" height="1024" viewBox="0 0 2052 1024" fill="none" xmlns="http://www.w3.org/2000/svg">
<rect width="2052" height="1024" fill="#FEFFE9"/>
<path fill-rule="evenodd" clip-rule="evenodd" d="M736.818 156.138C774.692 103.696 836.892 93.2446 893.967 110.994C964.643 132.972 1027.84 198.297 1027.84 281.328L1027.84 920.359L1026.3 919.37C977.804 888.243 926.548 858.207 876.372 828.806C847.501 811.887 818.988 795.179 791.564 778.593C716.534 733.216 649.672 688.764 606.268 643.562C527.892 561.94 490.05 481.387 518.348 398.706C533.551 354.287 556.819 327.821 583.086 318.642C608.472 309.77 636.355 317.149 661.943 339.51C683.908 358.705 704.239 388.977 720.01 429.681C687.036 293.338 700.852 205.939 736.818 156.138ZM727.472 450.808C732.39 466.064 739.437 484.125 747.876 505.495C748.641 507.43 749.416 509.392 750.203 511.381C758.13 531.434 767.154 554.263 776.698 580.214C804.074 634.569 852.086 697.624 900.648 757.807C913.877 774.202 927.148 790.384 940.05 806.118C972.617 845.83 1002.83 882.678 1024.09 912.833C1015.11 882.946 1004.47 849.031 992.949 812.333C967.346 730.76 937.427 635.438 911.862 540.058C894.86 476.627 879.776 413.146 869.158 353.629C838.276 333.499 814.116 329.592 795.25 334.814C776.289 340.063 762.414 354.604 752.328 371.833C742.246 389.056 736.022 408.845 732.319 424.359C730.468 432.11 729.25 438.781 728.495 443.512C728.117 445.877 727.855 447.757 727.688 449.043C727.605 449.687 727.545 450.182 727.506 450.515C727.492 450.633 727.481 450.73 727.472 450.807L727.472 450.808ZM871.058 352.888C881.382 410.845 895.957 472.597 912.428 534.429C914.176 520.151 917.206 504.236 921.729 489.231C926.812 472.369 933.804 456.571 943.043 445.546C952.304 434.494 963.912 428.151 978.11 430.518C991.768 432.794 1007.59 443.103 1025.84 464.434L1025.84 281.328C1025.84 199.598 963.764 135.047 893.961 113.087C886.466 120.947 880.507 132.514 875.983 147.275C871.376 162.304 868.276 180.577 866.531 201.474C863.043 243.258 864.984 295.423 871.058 352.888ZM891.835 112.432C835.768 95.5264 775.338 106.216 738.439 157.309C701.56 208.374 687.956 300.089 726.125 445.763C726.24 444.986 726.371 444.129 726.52 443.197C727.282 438.425 728.509 431.704 730.373 423.894C734.099 408.288 740.38 388.285 750.602 370.823C760.821 353.367 775.05 338.331 794.716 332.887C814.033 327.539 838.343 331.515 868.854 351.051C862.943 294.329 861.077 242.768 864.538 201.308C866.29 180.324 869.408 161.899 874.07 146.689C878.51 132.205 884.368 120.575 891.835 112.432ZM1025.84 467.529C1007.04 445.094 991.112 434.713 977.781 432.49C964.494 430.276 953.54 436.133 944.576 446.831C935.589 457.555 928.694 473.056 923.644 489.808C918.62 506.478 915.446 524.304 913.842 539.718C939.386 635.001 969.256 730.168 994.838 811.67C1006.29 848.16 1016.88 881.911 1025.84 911.707L1025.84 467.529ZM1021.48 912.604C1000.33 882.78 970.613 846.541 938.563 807.458C925.648 791.71 912.355 775.501 899.092 759.063C850.637 699.013 802.591 635.94 775.079 581.445C754.915 575.365 740.793 575.083 731.216 578.482C721.655 581.875 716.475 588.991 714.308 598.101C712.129 607.263 713.014 618.415 715.654 629.667C718.28 640.863 722.624 652.07 727.297 661.359C768.994 711.623 825.858 759.905 881.407 803.537C901.808 819.563 922.041 834.967 941.274 849.611C971.573 872.679 999.392 893.859 1021.48 912.604ZM722.163 655.138C718.754 647.371 715.731 638.752 713.707 630.124C711.033 618.729 710.081 607.229 712.362 597.638C714.656 587.995 720.233 580.257 730.547 576.597C740.458 573.08 754.6 573.381 774.15 579.084C764.863 553.907 756.084 531.699 748.342 512.114C747.556 510.126 746.78 508.164 746.016 506.23C737.544 484.778 730.447 466.589 725.503 451.218C709.051 400.07 685.848 363.057 660.627 341.016C635.535 319.088 608.525 312.027 584.094 320.409C568.659 347.213 568.542 381.491 579.747 420.508C590.993 459.671 613.607 503.457 643.314 548.937C666.092 583.809 693.023 619.651 722.163 655.138ZM581.21 321.475C556.77 331.165 534.837 356.704 520.24 399.353C493.002 478.94 527.707 556.807 602.041 636.197C597.721 628.231 593.564 619.293 590.332 610.229C586.091 598.336 583.411 586.147 584.095 575.619C584.782 565.057 588.872 556.064 598.246 550.848C607.197 545.866 620.777 544.441 640.354 548.057C611.226 503.202 588.985 459.925 577.824 421.06C566.828 382.77 566.549 348.622 581.21 321.475ZM641.869 550.383C621.445 546.351 607.846 547.794 599.219 552.595C590.608 557.387 586.748 565.645 586.091 575.749C585.432 585.886 588.015 597.779 592.216 609.557C596.396 621.279 602.15 632.811 607.79 642.259C650.993 687.22 717.607 731.528 792.599 776.882C819.972 793.437 848.462 810.132 877.325 827.045C923.332 854.005 970.283 881.518 1015.16 909.898C993.988 892.258 968.148 872.585 940.148 851.267C920.904 836.616 900.64 821.188 880.171 805.11C824.573 761.438 767.533 713.018 725.685 662.549C694.668 625.142 665.965 587.234 641.869 550.383Z" fill="#DFDEFD"/>
<path fill-rule="evenodd" clip-rule="evenodd" d="M1316.03 156.136C1278.16 103.694 1215.96 93.2428 1158.88 110.992C1088.2 132.97 1025 198.295 1025 281.326L1025 920.357L1026.54 919.369C1075.04 888.241 1126.3 858.205 1176.47 828.804C1205.35 811.885 1233.86 795.177 1261.28 778.592C1336.31 733.214 1403.17 688.762 1446.58 643.56C1524.96 561.938 1562.8 481.385 1534.5 398.704C1519.3 354.285 1496.03 327.819 1469.76 318.64C1444.38 309.768 1416.49 317.147 1390.9 339.508C1368.94 358.703 1348.61 388.975 1332.84 429.679C1365.81 293.336 1351.99 205.937 1316.03 156.136ZM1325.37 450.807C1320.46 466.062 1313.41 484.124 1304.97 505.493C1304.21 507.428 1303.43 509.39 1302.64 511.379C1294.72 531.433 1285.69 554.261 1276.15 580.212C1248.77 634.568 1200.76 697.622 1152.2 757.805C1138.97 774.2 1125.7 790.383 1112.8 806.116C1080.23 845.828 1050.01 882.676 1028.75 912.831C1037.73 882.944 1048.38 849.029 1059.9 812.332C1085.5 730.758 1115.42 635.436 1140.98 540.056C1157.99 476.625 1173.07 413.144 1183.69 353.627C1214.57 333.497 1238.73 329.59 1257.6 334.812C1276.56 340.061 1290.43 354.602 1300.52 371.832C1310.6 389.054 1316.82 408.843 1320.53 424.357C1322.38 432.108 1323.6 438.779 1324.35 443.51C1324.73 445.875 1324.99 447.755 1325.16 449.042C1325.24 449.685 1325.3 450.18 1325.34 450.513C1325.36 450.631 1325.37 450.729 1325.37 450.805L1325.37 450.807ZM1181.79 352.886C1171.47 410.843 1156.89 472.595 1140.42 534.427C1138.67 520.149 1135.64 504.235 1131.12 489.229C1126.03 472.367 1119.04 456.569 1109.8 445.544C1100.54 434.492 1088.94 428.149 1074.74 430.516C1061.08 432.793 1045.26 443.101 1027 464.432L1027 281.326C1027 199.596 1089.08 135.045 1158.89 113.085C1166.38 120.945 1172.34 132.512 1176.86 147.273C1181.47 162.303 1184.57 180.576 1186.32 201.472C1189.8 243.256 1187.86 295.421 1181.79 352.886ZM1161.01 112.43C1217.08 95.5246 1277.51 106.215 1314.41 157.307C1351.29 208.372 1364.89 300.087 1326.72 445.761C1326.61 444.985 1326.48 444.127 1326.33 443.195C1325.57 438.423 1324.34 431.702 1322.47 423.893C1318.75 408.286 1312.47 388.284 1302.24 370.821C1292.03 353.365 1277.8 338.329 1258.13 332.885C1238.81 327.537 1214.5 331.513 1183.99 351.049C1189.9 294.327 1191.77 242.767 1188.31 201.306C1186.56 180.322 1183.44 161.897 1178.78 146.687C1174.34 132.203 1168.48 120.573 1161.01 112.43ZM1027 467.527C1045.8 445.092 1061.73 434.711 1075.07 432.489C1088.35 430.274 1099.31 436.131 1108.27 446.829C1117.26 457.553 1124.15 473.054 1129.2 489.807C1134.23 506.476 1137.4 524.302 1139.01 539.717C1113.46 634.999 1083.59 730.166 1058.01 811.668C1046.56 848.158 1035.96 881.909 1027 911.705L1027 467.527ZM1031.36 912.602C1052.52 882.778 1082.23 846.539 1114.28 807.456C1127.2 791.708 1140.49 775.499 1153.76 759.061C1202.21 699.011 1250.26 635.939 1277.77 581.443C1297.93 575.363 1312.05 575.081 1321.63 578.48C1331.19 581.873 1336.37 588.989 1338.54 598.099C1340.72 607.261 1339.83 618.413 1337.19 629.665C1334.57 640.861 1330.22 652.068 1325.55 661.358C1283.85 711.622 1226.99 759.903 1171.44 803.536C1151.04 819.561 1130.81 834.965 1111.57 849.609C1081.27 872.677 1053.45 893.858 1031.36 912.602ZM1330.68 655.136C1334.09 647.369 1337.12 638.75 1339.14 630.122C1341.81 618.727 1342.77 607.227 1340.48 597.636C1338.19 587.993 1332.61 580.255 1322.3 576.595C1312.39 573.078 1298.25 573.379 1278.7 579.082C1287.98 553.905 1296.76 531.697 1304.51 512.112C1305.29 510.124 1306.07 508.163 1306.83 506.228C1315.3 484.776 1322.4 466.587 1327.34 451.216C1343.8 400.068 1367 363.055 1392.22 341.014C1417.31 319.086 1444.32 312.025 1468.75 320.407C1484.19 347.211 1484.31 381.489 1473.1 420.507C1461.85 459.669 1439.24 503.455 1409.53 548.935C1386.76 583.807 1359.82 619.649 1330.68 655.136ZM1471.64 321.473C1496.08 331.164 1518.01 356.702 1532.61 399.352C1559.85 478.938 1525.14 556.805 1450.81 636.196C1455.13 628.229 1459.28 619.291 1462.52 610.227C1466.76 598.334 1469.44 586.145 1468.75 575.617C1468.07 565.055 1463.98 556.063 1454.6 550.846C1445.65 545.864 1432.07 544.439 1412.49 548.055C1441.62 503.2 1463.86 459.923 1475.02 421.059C1486.02 382.768 1486.3 348.62 1471.64 321.473ZM1410.98 550.381C1431.4 546.349 1445 547.792 1453.63 552.593C1462.24 557.385 1466.1 565.643 1466.76 575.747C1467.42 585.885 1464.83 597.777 1460.63 609.555C1456.45 621.278 1450.7 632.809 1445.06 642.257C1401.85 687.219 1335.24 731.526 1260.25 776.88C1232.88 793.435 1204.38 810.13 1175.52 827.043C1129.52 854.003 1082.56 881.516 1037.69 909.896C1058.86 892.257 1084.7 872.583 1112.7 851.265C1131.94 836.614 1152.21 821.186 1172.68 805.108C1228.27 761.436 1285.31 713.016 1327.16 662.547C1358.18 625.14 1386.88 587.232 1410.98 550.381Z" fill="#DFDEFD"/>
</svg>
