<svg width="50" height="50" viewBox="0 0 50 50" fill="none" xmlns="http://www.w3.org/2000/svg">
<circle cx="25" cy="25" r="25" fill="#FEFFE9"/>
<path d="M33 43C25.9031 38.6647 17.5252 34.8028 13.5037 30.8166M33 43C29.6327 40.2088 22.9309 36.1117 19.0511 31.6582M33 43C30.2744 39.2295 23.8886 32.8803 21.3416 28.065M33 43C31.6617 38.7314 29.4625 32.5003 27.7055 26.2611M33 43V23.051M19.0511 22.3326C17.5199 17.8014 14.7265 15.7574 12.409 16.5283M19.0511 22.3326C15.3556 9.1957 21.5421 5.79033 26.8159 7.3513M19.0511 22.3326C19.0511 22.3326 19.9253 14.395 25.7199 18.0064M19.0511 22.3326C19.5092 23.6881 20.367 25.5427 21.3416 28.065M26.8159 7.3513C30.0831 8.31833 33 11.1914 33 14.8374V23.051M26.8159 7.3513C25.358 8.7698 25.1552 12.9227 25.7199 18.0064M12.409 16.5283C11.2081 16.9277 10.135 18.0829 9.43148 20.0395C8.12617 23.6695 9.86776 27.2126 13.5037 30.8166M12.409 16.5283C10.9403 18.9314 12.3902 22.6655 15.1516 26.6892M25.7199 18.0064C26.2128 20.6406 26.9144 23.4517 27.7055 26.2611M13.5037 30.8166C12.4477 29.1351 11.2989 25.9554 15.1516 26.6892M15.1516 26.6892C16.2714 28.321 17.607 30.0005 19.0511 31.6582M19.0511 31.6582C18.1739 30.0018 17.5404 26.9644 21.3416 28.065M27.7055 26.2611C28.0034 23.5197 29.4792 19.0397 33 23.051" stroke="#241AFF"/>
</svg>
