<svg width="193" height="74" viewBox="0 0 193 74" fill="none" xmlns="http://www.w3.org/2000/svg">
<circle cx="24.4732" cy="24.4732" r="24.4732" fill="#FDFFC8"/>
<path d="M71.142 41.9426C67.6274 41.9426 65.0806 40.8856 63.5015 38.7718C61.9225 36.6579 61.133 33.589 61.133 29.5651V13.482H65.4116V29.6415C65.4116 32.6213 65.8573 34.7606 66.7487 36.0594C67.6401 37.3329 69.1045 37.9696 71.142 37.9696C73.1794 37.9696 74.6311 37.3456 75.497 36.0977C76.3884 34.8242 76.8341 32.6722 76.8341 29.6415V13.482H81.1509V29.5651C81.1509 33.5636 80.3104 36.6325 78.6296 38.7718C76.9741 40.8856 74.4783 41.9426 71.142 41.9426ZM87.0382 13.482H91.1258V41.5605H87.0382V13.482ZM97.413 24.0258H101.692V41.5605H97.413V24.0258ZM99.5141 20.7404C98.7246 20.7404 98.0625 20.473 97.5276 19.9382C96.9928 19.4034 96.7254 18.7412 96.7254 17.9517C96.7254 17.2386 96.9928 16.6273 97.5276 16.118C98.0625 15.6086 98.7246 15.3539 99.5141 15.3539C100.278 15.3539 100.928 15.6086 101.462 16.118C101.997 16.6273 102.265 17.2386 102.265 17.9517C102.265 18.7412 101.997 19.4034 101.462 19.9382C100.953 20.473 100.304 20.7404 99.5141 20.7404ZM107.595 24.0258H111.644L111.683 27.2348C112.167 26.1651 112.931 25.2865 113.975 24.5988C115.019 23.9112 116.241 23.5674 117.642 23.5674C119.45 23.5674 120.838 23.9494 121.806 24.7134C122.774 25.452 123.423 26.4962 123.755 27.846C124.086 29.1958 124.251 30.9531 124.251 33.1179V41.5605H120.125V33.2325C120.125 31.0168 119.909 29.425 119.476 28.4572C119.043 27.464 118.152 26.9674 116.802 26.9674C116.038 26.9674 115.261 27.2093 114.471 27.6932C113.682 28.1516 113.02 28.8265 112.485 29.7179C111.976 30.6093 111.721 31.6535 111.721 32.8505V41.5605H107.595V24.0258ZM114.624 20.091L120.469 11.3427L124.098 13.673L117.413 21.6573L114.624 20.091ZM135.796 41.9426C134.573 41.9426 133.3 41.7898 131.975 41.4841C130.677 41.1531 129.747 40.771 129.187 40.3381L130.562 37.0909C132.09 38.1606 133.835 38.6954 135.796 38.6954C137.757 38.6954 138.737 38.1224 138.737 36.9763C138.737 36.4669 138.533 36.0722 138.126 35.792C137.718 35.5119 136.993 35.1808 135.948 34.7988L134.497 34.264C132.969 33.6527 131.759 32.9269 130.868 32.0864C129.976 31.2205 129.531 30.0872 129.531 28.6865C129.531 27.082 130.154 25.834 131.402 24.9426C132.676 24.0258 134.369 23.5674 136.483 23.5674C137.527 23.5674 138.546 23.682 139.539 23.9112C140.558 24.1404 141.335 24.4333 141.87 24.7898L140.38 28.0752C140.049 27.7441 139.514 27.464 138.775 27.2348C138.062 26.9801 137.26 26.8528 136.369 26.8528C134.56 26.8528 133.656 27.4003 133.656 28.4954C133.656 29.1067 133.898 29.5778 134.382 29.9089C134.866 30.2145 135.656 30.5584 136.751 30.9404C136.853 30.9658 137.247 31.1059 137.935 31.3606C139.565 31.9973 140.775 32.7231 141.564 33.5381C142.354 34.3531 142.748 35.3973 142.748 36.6707C142.748 38.4025 142.086 39.7141 140.762 40.6055C139.463 41.4969 137.808 41.9426 135.796 41.9426ZM163.078 41.5605H158.226L154.673 35.8302L153.68 33.8819L151.388 36.3651V41.5605H147.415V13.482H151.35V28.8775L151.273 31.8572L157.959 24.0258H163.039L156.43 31.3606L163.078 41.5605ZM174.308 41.9426C172.729 41.9426 171.265 41.5733 169.915 40.8347C168.591 40.0707 167.521 39.001 166.706 37.6257C165.916 36.225 165.522 34.595 165.522 32.7359C165.522 30.9022 165.865 29.2977 166.553 27.9224C167.266 26.5471 168.272 25.4775 169.571 24.7134C170.87 23.9494 172.398 23.5674 174.155 23.5674C175.174 23.5674 176.129 23.7457 177.02 24.1022C177.912 24.4588 178.663 24.9044 179.274 25.4393C179.886 25.9486 180.293 26.458 180.497 26.9674L180.573 24.0258H184.508V41.5605H180.611L180.535 38.4662C180.102 39.383 179.313 40.198 178.167 40.9111C177.02 41.5987 175.734 41.9426 174.308 41.9426ZM174.996 38.5044C176.447 38.5044 177.67 38.0078 178.663 37.0145C179.656 35.9958 180.153 34.6714 180.153 33.0415V32.7741C180.153 31.6789 179.924 30.6984 179.465 29.8325C179.007 28.9666 178.383 28.2917 177.593 27.8078C176.804 27.3239 175.938 27.082 174.996 27.082C173.366 27.082 172.105 27.6168 171.214 28.6865C170.322 29.7306 169.877 31.0932 169.877 32.7741C169.877 34.4804 170.31 35.8684 171.176 36.9381C172.067 37.9823 173.34 38.5044 174.996 38.5044Z" fill="#241AFF"/>
<path d="M69.3465 63.8795C68.2004 65.1784 67.2326 65.6623 65.9337 65.6623C63.6161 65.6623 61.8589 63.9559 61.8589 60.1102C61.8589 56.0863 63.769 54.4054 66.0101 54.4054C67.0289 54.4054 68.0731 54.7874 69.3465 55.9844V63.8795ZM71.282 65.484V50.1522L71.3584 46.2556L71.0019 46.0264L67.0289 47.096V47.8856L69.4229 48.0893V54.9911C68.2259 53.5904 66.9525 53.132 65.7045 53.132C62.2918 53.132 59.7959 55.8825 59.7959 60.1612C59.7959 64.1342 62.0881 66.9357 65.4244 66.9357C67.1307 66.9357 68.3787 66.1971 69.3974 64.8982L69.5502 66.8338L73.727 66.5791V65.7641L71.282 65.484ZM77.7302 58.9132C78.0358 55.6788 79.895 54.1507 81.7542 54.1507C83.7152 54.1507 85.065 55.7552 85.065 57.5379C85.065 58.3529 84.8103 58.9132 83.6897 58.9132H77.7302ZM86.7968 59.9065C86.9242 59.5245 86.9751 58.9896 86.9751 58.3275C86.9751 55.144 84.8358 53.132 81.8815 53.132C78.5197 53.132 75.6418 55.8571 75.6418 60.1102C75.6418 64.4653 78.2141 66.9357 81.7796 66.9357C84.1482 66.9357 85.9055 65.7641 86.9496 63.9304L86.4148 63.5229C85.4216 64.7199 84.2246 65.5094 82.4163 65.5094C79.7167 65.5094 77.7302 63.6503 77.7047 59.881L86.7968 59.9065ZM94.5093 58.8113C92.6246 58.0982 91.9115 57.5634 91.9115 56.2645C91.9115 55.0166 92.8539 54.1507 94.713 54.1507C95.4516 54.1507 96.1647 54.329 96.8523 54.711L97.3108 56.9777H98.4314L98.5332 54.2271C97.3108 53.514 96.1902 53.132 94.713 53.132C91.7078 53.132 90.0524 54.8638 90.0524 56.8503C90.0524 58.7349 91.3767 59.8046 93.4142 60.5432L94.6876 61.0271C96.5467 61.7147 97.3362 62.3514 97.3362 63.5993C97.3362 64.9746 96.2666 65.9169 93.9999 65.9169C93.0576 65.9169 92.2936 65.7387 91.6059 65.433L91.0456 62.9626H89.8232L89.925 65.9424C91.2748 66.5791 92.4718 66.9357 93.9999 66.9357C97.4636 66.9357 99.2209 65.102 99.2209 63.09C99.2209 61.3836 98.2021 60.1612 95.5025 59.1679L94.5093 58.8113ZM104.715 49.6938C105.632 49.6938 106.345 49.0571 106.345 48.1402C106.345 47.1979 105.632 46.5867 104.715 46.5867C103.824 46.5867 103.111 47.1979 103.111 48.1402C103.111 49.0571 103.824 49.6938 104.715 49.6938ZM105.785 65.433C105.759 64.0323 105.734 62.0713 105.734 60.7724V57.0286L105.81 53.4121L105.428 53.1574L101.43 54.4818V55.3222L103.773 55.475C103.824 56.7484 103.824 57.7672 103.824 59.3462V60.7724C103.824 62.0713 103.798 64.0323 103.773 65.433L101.582 65.7641V66.5791H107.797V65.7641L105.785 65.433ZM115.518 61.3072C113.685 61.3072 112.564 59.8555 112.564 57.6908C112.564 55.526 113.736 54.0488 115.595 54.0488C117.454 54.0488 118.549 55.5005 118.549 57.6144C118.549 59.7791 117.403 61.3072 115.518 61.3072ZM117.836 66.9102C119.873 66.9102 120.637 67.878 120.637 69.1514C120.637 70.8323 118.957 72.2075 115.773 72.2075C113.456 72.2075 111.953 71.3416 111.953 69.457C111.953 68.4128 112.36 67.6742 113.226 66.8338C113.634 66.8847 114.067 66.9102 114.576 66.9102H117.836ZM122.522 53.4376L122.089 53.1574L118.931 54.1507C118.065 53.4885 116.919 53.132 115.595 53.132C112.768 53.132 110.679 54.7874 110.679 57.6653C110.679 59.5245 111.494 60.8488 112.793 61.5874C111.444 62.8098 110.934 63.7012 110.934 64.6181C110.934 65.6623 111.596 66.3499 112.717 66.6555C110.807 67.5724 110.043 68.5656 110.043 69.7881C110.043 71.851 111.876 73.2517 115.748 73.2517C120.154 73.2517 122.369 70.9341 122.369 68.5656C122.369 66.3754 120.994 65.1784 118.167 65.1784H114.423C112.997 65.1784 112.564 64.6181 112.564 63.8286C112.564 63.1409 112.87 62.5806 113.43 61.8675C114.067 62.0967 114.78 62.2241 115.569 62.2241C118.371 62.2241 120.434 60.5686 120.434 57.6653C120.434 56.5447 120.154 55.6278 119.619 54.9147L122.522 54.9402V53.4376ZM137.206 65.433C137.155 64.0323 137.13 62.0967 137.13 60.7724V58.1237C137.13 54.5327 135.958 53.132 133.641 53.132C131.934 53.132 130.024 54.1252 128.547 55.7552L128.343 53.4121L127.987 53.1574L124.319 54.5072V55.3222L126.586 55.5005C126.637 56.6975 126.688 57.7672 126.688 59.3716V60.7724C126.688 62.0713 126.662 64.0323 126.612 65.4585L124.472 65.7641V66.5791H130.686V65.7641L128.674 65.433C128.649 64.0323 128.624 62.0713 128.624 60.7724V56.7484C130.253 55.2458 131.552 54.711 132.8 54.711C134.43 54.711 135.194 55.5769 135.194 58.2256V60.7724C135.194 62.0967 135.169 64.0578 135.143 65.4585L132.979 65.7641V66.5791H139.218V65.7641L137.206 65.433Z" fill="#241AFF"/>
<path d="M48.9462 62.874C38.0027 56.2129 25.084 50.2791 18.8827 44.1543M48.9462 62.874C43.7539 58.5853 33.4197 52.2901 27.437 45.4474M48.9462 62.874C44.7433 57.0806 34.8964 47.3252 30.9688 39.9266M48.9462 62.874C46.8825 56.3153 43.4915 46.7413 40.7821 37.155M48.9462 62.874V32.2226M27.437 31.1188C25.0757 24.1567 20.7683 21.0162 17.1947 22.2006M27.437 31.1188C21.7383 10.9342 31.278 5.70191 39.4103 8.10031M27.437 31.1188C27.437 31.1188 28.7849 18.9228 37.7203 24.4717M27.437 31.1188C28.1433 33.2015 29.4661 36.0511 30.9688 39.9266M39.4103 8.10031C44.4484 9.58613 48.9462 14.0005 48.9462 19.6026V32.2226M39.4103 8.10031C37.1622 10.2798 36.8495 16.6607 37.7203 24.4717M17.1947 22.2006C15.343 22.8144 13.6882 24.5893 12.6033 27.5955C10.5905 33.173 13.2761 38.6169 18.8827 44.1543M17.1947 22.2006C14.9299 25.8929 17.1657 31.6303 21.4237 37.8127M37.7203 24.4717C38.4804 28.5191 39.5621 32.8383 40.7821 37.155M18.8827 44.1543C17.2544 41.5707 15.483 36.6853 21.4237 37.8127M21.4237 37.8127C23.1506 40.32 25.2101 42.9004 27.437 45.4474M27.437 45.4474C26.0842 42.9025 25.1073 38.2355 30.9688 39.9266M40.7821 37.155C41.2414 32.9428 43.5172 26.0594 48.9462 32.2226" stroke="#241AFF" stroke-width="2.38763"/>
</svg>
