<svg width="1123" height="886" viewBox="0 0 1123 886" fill="none" xmlns="http://www.w3.org/2000/svg">
<path d="M561 884C395.7 777.666 200.567 682.941 106.898 585.168M561 884C482.571 815.538 326.475 715.044 236.108 605.81M561 884C497.516 791.517 348.781 635.786 289.455 517.677M561 884C529.828 779.3 478.607 626.465 437.683 473.433M561 884V394.694M236.108 377.074C200.442 265.935 135.38 215.8 81.4013 234.708M236.108 377.074C150.032 54.8556 294.127 -28.6704 416.963 9.61653M236.108 377.074C236.108 377.074 256.468 182.382 391.434 270.962M236.108 377.074C246.778 410.322 266.757 455.811 289.455 517.677M416.963 9.61653C493.061 33.3356 561 103.805 561 193.234V394.694M416.963 9.61653C383.005 44.4094 378.282 146.271 391.434 270.962M81.4013 234.708C53.4313 244.505 28.437 272.84 12.05 320.83C-18.353 409.867 22.2115 496.771 106.898 585.168M81.4013 234.708C47.1927 293.651 80.9631 385.24 145.28 483.932M391.434 270.962C402.916 335.574 419.255 404.523 437.683 473.433M106.898 585.168C82.3031 543.924 55.5462 465.935 145.28 483.932M145.28 483.932C171.364 523.958 202.472 565.151 236.108 605.81M236.108 605.81C215.675 565.184 200.919 490.681 289.455 517.677M437.683 473.433C444.62 406.192 478.996 296.308 561 394.694" stroke="#241AFF" stroke-width="2"/>
<path d="M561 884C726.595 777.666 922.078 682.941 1015.91 585.168M561 884C639.57 815.538 795.945 715.044 886.473 605.81M561 884C624.597 791.517 773.599 635.786 833.03 517.677M561 884C592.228 779.3 643.54 626.465 684.537 473.433M561 884V394.694M886.473 377.074C922.203 265.935 987.381 215.8 1041.46 234.708M886.473 377.074C972.703 54.8556 828.351 -28.6704 705.295 9.61653M886.473 377.074C886.473 377.074 866.077 182.382 730.869 270.962M886.473 377.074C875.785 410.322 855.769 455.811 833.03 517.677M705.295 9.61653C629.061 33.3356 561 103.805 561 193.234V394.694M705.295 9.61653C739.314 44.4094 744.044 146.271 730.869 270.962M1041.46 234.708C1069.48 244.505 1094.52 272.84 1110.93 320.83C1141.39 409.867 1100.75 496.771 1015.91 585.168M1041.46 234.708C1075.73 293.651 1041.9 385.24 977.464 483.932M730.869 270.962C719.367 335.574 702.998 404.523 684.537 473.433M1015.91 585.168C1040.55 543.924 1067.36 465.935 977.464 483.932M977.464 483.932C951.333 523.958 920.169 565.151 886.473 605.81M886.473 605.81C906.943 565.184 921.725 490.681 833.03 517.677M684.537 473.433C677.588 406.192 643.151 296.308 561 394.694" stroke="#241AFF" stroke-width="2"/>
</svg>
